<?xml version="1.0" encoding="UTF-8"?>
<svg xmlns="http://www.w3.org/2000/svg" viewBox="0 0 48.72 48.72">
  <path fill-rule="nonzero" fill="rgb(255,255,255)" d="M41.84 18.68l0 -0.2 0 -0.08 -0.12 0.04 0.08 -0.08 -0.04 0.04 0.08 -0.12c0,0 0,0 0,0 -0.08,0.04 -0.12,0.04 -0.16,0.04 0,0 0.08,-0.08 0.16,-0.12l-0.08 0c0,0 0,0 0,0 0,0 0,0 0,0l0.08 -0.08c0,0 0,-0.04 0,-0.04l-0.04 -0.32 0 -0.16c0,0 -0.04,-0.04 -0.08,-0.04l-0.12 -0.08c-0.04,0 -0.04,0 -0.04,0 0,0 0,0 0.04,0l0.12 0c0.04,0 0.04,0 0.04,-0.04l0 -0.12c-0.04,-0.08 -0.04,-0.16 -0.08,-0.24l-0.16 -0.2 0 -0.04c0,0 -0.04,-0.04 -0.04,-0.04l-0.16 0c0,0 0,0 0,0 -0.04,0 -0.04,0 -0.04,0 0,0 0,-0.04 0,-0.04 0,0 0,0 0,0l-0.12 0 0 -0.04c0.08,-0.04 0.16,-0.04 0.24,-0.08l0 0c0,0 -0.28,-0.44 -0.32,-0.44l-0.24 -0.24 0 -0.04 -0.16 -0.08c-0.04,0 -0.08,0 -0.08,0 -0.08,0.04 -0.16,0.08 -0.2,0.12 0,0 -0.04,0 -0.04,0 0.04,-0.08 0.04,-0.12 0.08,-0.2 0,-0.04 -0.04,-0.08 -0.08,-0.08l-0.08 -0.08 -0.32 -0.2 -0.04 0 0 0c-0.04,0 -0.08,0 -0.08,0 -0.12,0.04 -0.2,0.12 -0.32,0.16l0 0c0.04,-0.04 0.08,-0.12 0.08,-0.2 0,0 0,0 0,0 -0.08,0.08 -0.2,0.2 -0.24,0.24 -0.08,0.04 -0.04,0 0,0l0.12 -0.28c0,-0.04 0,-0.04 0,-0.04 0,0 0,0 0,0l-0.2 -0.08 -0.04 0 -0.04 -0.04c0,0 -0.04,0 -0.04,0 0,0 -0.04,0 -0.04,0 -0.12,0 -0.2,0.24 -0.24,0.36 0,0.04 0,0.04 -0.04,0.08 -0.16,0.2 -0.32,0.4 -0.44,0.64 0,0 -0.04,0 -0.04,0 0,0 0,0 0,-0.04l0.44 -1.04c0,-0.04 0,-0.08 0,-0.08 -0.04,-0.04 -0.04,-0.04 -0.08,-0.08l0 0c-0.04,0 -0.04,0 -0.08,0l-0.04 0c0,0 -0.04,0 -0.04,0l-0.08 0c0,0 -0.04,0 -0.04,0 -0.52,0.72 -0.88,1.52 -1.12,2.4 0,0 0,0 0,0 0.2,-1.32 0.44,-2.44 0.52,-2.64 0,0 0,0 0,0l0 0.04c-0.16,0.32 -0.28,0.72 -0.32,1.08 -0.08,0.32 0.08,-0.8 0.16,-1.12 0,0 0,-0.04 0,-0.04 -0.04,-0.04 -0.04,-0.04 -0.04,-0.04 -0.04,0 -0.04,0 -0.08,0 0,0 0,0 0,0.04 -0.04,0 -0.04,0 -0.04,0 -0.04,0.08 -0.08,0.16 -0.12,0.28 0,-0.04 0,-0.12 0,-0.2 0,-0.04 0,-0.08 -0.04,-0.08 -0.04,-0.04 -0.04,-0.04 -0.08,-0.08l-0.08 0c0,0 0,0 -0.04,0.04 0,0 0,0 0,0 -0.08,0.32 -0.2,0.88 -0.48,1.88 0,0 0,0 0,0 -0.04,0 -0.04,0 -0.04,0 0.08,-0.68 0.04,-1.32 -0.08,-1.96 0,-0.04 -0.04,-0.08 -0.04,-0.08l-0.08 0 -0.12 0c0,0 0,0 0,0.04 -0.04,0.2 -0.08,0.72 -0.2,1.4 0,0 0,0 0,0 0,0 0,0 0,0 0,-0.48 0,-1.04 0,-1.32 0,-0.04 0,-0.04 -0.04,-0.04 0,-0.04 0,-0.04 -0.04,-0.04l-0.4 0.12c-0.04,0 -0.08,0.04 -0.12,0.08 -0.28,0.48 -0.52,1.56 -0.68,2.48 0,0 -0.04,0 -0.04,0 0.08,-0.8 0.28,-1.6 0.52,-2.36 0,0 0,-0.04 0,-0.04 0,0 -0.04,0 -0.04,0l-0.2 0.12 -0.08 0.04c-0.08,0.04 -0.12,0.12 -0.16,0.2 -0.2,0.48 -0.36,1.04 -0.48,1.56 0,0.04 0,0.04 -0.04,0.04 0,0 -0.04,0 -0.04,-0.04 0.08,-0.52 0.2,-1 0.4,-1.48l-0.4 0.32 -0.56 0.52c-0.04,0.04 -0.08,0.08 -0.08,0.16l-0.12 0.2c0,0 0,0 0,0 -0.04,0 -0.04,0 -0.04,0l0 -0.04c0,-0.04 0,-0.04 0,-0.04 0,-0.08 0.04,-0.16 0.08,-0.24 0,-0.04 0,-0.04 0,-0.04 0,-0.08 0.04,-0.16 0.08,-0.2l-0.08 0.04c-0.04,0.04 -0.04,0.08 -0.08,0.16l0.04 -0.12 -0.08 0.08c0,0.04 -0.04,0.12 -0.04,0.16l-0.04 0 0 -0.08c-0.04,0.04 -0.08,0.08 -0.12,0.12 0,0.12 -0.04,0.2 -0.08,0.32 -0.04,0.08 -0.04,0.12 -0.08,0.2l0 0c-0.04,0.24 -0.12,0.48 -0.2,0.72 0,0.12 -0.04,0.2 -0.04,0.28 0,0 0,0 -0.04,0.04 0,0 0,0 0,0l0 0.04c0,0 0,0.04 -0.04,0.04l0 0.04c0,0.04 0,0.04 -0.04,0.04 0,0 0,0 -0.04,-0.04l-0.08 -0.16c0,-0.04 -0.08,-0.08 -0.12,-0.08 -0.04,-0.04 -0.08,-0.04 -0.12,-0.08 0,0 0,0 0,0 0,0 -0.04,0 -0.04,0 0,0.08 0,0.12 -0.04,0.16l-0.08 0.16 -0.08 0.12 0 0.08 0 0 0 -0.08 -0.2 0.52c0,0 -0.04,0 0,-0.04 0,-0.04 0,-0.12 0.04,-0.2 0,0 0,-0.04 -0.04,-0.04 0,0 0,0 0,0 -0.08,0.08 -0.12,0.12 -0.16,0.2l-0.04 0.08c0,0 0,0.04 0,0.04 0,0 -0.04,-0.04 -0.04,-0.04 0,0 0,-0.04 -0.04,0 0,0 0,0.04 0,0.04 0,0.08 0,0.08 -0.04,0.2l-0.04 0.08c-0.04,0.04 -0.04,0.08 -0.04,0.12l-0.04 0.12 -0.04 0 0 -0.04 0 0c0,-0.04 0,0 0,0l0 0c-0.12,0.12 -0.2,0.28 -0.28,0.4 0,0 -0.04,0 -0.04,0 0,0 0,0 0,0 0,0 0,0 0,0l0 -0.04c0.04,-0.2 0.08,-0.4 0.12,-0.6 0.04,-0.04 0.04,-0.12 0.04,-0.16 0.04,-0.16 0.2,-0.6 0.2,-0.6 0.12,-0.4 0.16,-0.56 0.12,-0.6 -0.08,0 -0.16,0.12 -0.24,0.2 -0.32,0.64 -0.84,1.12 -1.68,1.68l-0.04 0 -0.56 0.24c-0.64,0.4 -1.36,0.72 -1.36,0.76 -0.28,0.08 -0.48,0.24 -0.64,0.48 -0.04,0.04 -0.08,0.08 -0.12,0.16 0,0 0,0 0,0.04 -0.08,0.16 -0.16,0.36 -0.28,0.56 -0.04,0.08 -0.04,0.16 -0.08,0.24 -0.04,0.08 -0.12,0.24 -0.16,0.36 -0.16,0.24 -0.28,0.52 -0.36,0.8 -0.08,0.2 -0.16,0.4 -0.2,0.56 0,0.04 -0.04,0.08 -0.04,0.12 -0.04,0.16 -0.08,0.32 -0.16,0.48 0,0 0,0 0,0 0,-0.08 0.04,-0.16 0.04,-0.2 0.08,-0.36 0.16,-0.72 0.24,-1.04 0,-0.12 0.08,-0.28 0.12,-0.44 0,-0.12 0.04,-0.24 0.08,-0.36l0.04 -0.12c0.08,-0.16 0.12,-0.28 0.2,-0.44 0.08,-0.12 0.16,-0.16 0.2,-0.28 0.04,-0.08 0.08,-0.16 0.08,-0.24 0,-0.04 0,-0.04 0,-0.04 0,0 0,0 -0.04,0 -0.04,0.04 -0.08,0.08 -0.16,0.12 -0.04,0.04 -0.08,0.08 -0.12,0.12l-0.08 0.04c-0.24,0.2 -0.52,0.36 -0.8,0.52 -0.24,0.12 -0.4,0.24 -0.6,0.4l-0.04 0.08c-0.08,0.08 -0.2,0.16 -0.28,0.28 -0.12,0.2 -0.28,0.4 -0.36,0.6 -0.08,0.08 -0.08,0.16 -0.16,0.24 0,0.04 0,0.04 0,0.08 -0.04,0.08 -0.08,0.16 -0.12,0.24 0,0.04 0,0.04 -0.04,0.08 -0.04,0.2 -0.12,0.4 -0.16,0.6 -0.08,0.4 -0.16,0.8 -0.24,1.2 -0.04,0.24 -0.12,0.44 -0.16,0.64 -0.04,0.12 -0.08,0.24 -0.16,0.32 0,0.08 -0.04,0.12 -0.04,0.16 -0.08,0.16 -0.16,0.32 -0.28,0.44 0,0.08 -0.04,0.12 -0.08,0.16 -0.04,0 -0.08,0.04 -0.12,0.08 0,0 0,0 0,-0.04 0.04,-0.12 0.12,-0.24 0.16,-0.4 0.04,-0.24 0.12,-0.48 0.16,-0.72 0.04,-0.36 0.04,-0.72 0.08,-1.04 0,-0.64 0.08,-1.24 0.16,-1.84 0.04,-0.24 0.16,-0.48 0.24,-0.72 0.04,-0.08 0.08,-0.16 0.12,-0.24 0.04,-0.08 0.12,-0.2 0.16,-0.32l0.04 -0.04 0 -0.04c0,0 0,-0.04 0,-0.04l0 -0.04c0,0 -0.04,-0.04 -0.08,-0.04 0,0 0,0.04 -0.04,0.04 0,0 0,0 -0.04,0 0,0 -0.12,0.16 -0.16,0.2l0 0.04 0 0.04c-0.04,0.04 -0.12,0.08 -0.16,0.16 -0.04,0.04 -0.08,0.16 -0.12,0.24 -0.04,0 -0.04,0 -0.04,0 0,0 0,0 0,-0.04 0,0 0,0 0,0 0,-0.04 0,-0.08 0.04,-0.12l-0.04 0 0 0c0,0.04 -0.04,0.04 -0.04,0.04 -0.08,0.08 -0.2,0.28 -0.24,0.32 0,0.04 -0.04,0.08 -0.08,0.12l-0.08 0.2 -0.04 0.04 0 -0.04 0.04 -0.24c0,0 0,0 0,0 0,0 0,0 0,0 -0.28,0.08 -0.52,0.2 -0.76,0.36 0,0 -0.04,0 0,0 0,-0.04 0.04,-0.08 0.04,-0.12 -0.04,0.04 -0.08,0.08 -0.12,0.12l-0.32 0.2c0,0 -0.04,0 -0.04,0 -0.04,0.04 -0.08,0.08 -0.12,0.16 0,0 -0.04,0.04 -0.08,0.04 -0.04,0 -0.04,0.04 -0.08,0.04l-0.32 0.36c-0.12,0.16 -0.28,0.32 -0.36,0.48 -0.04,0.08 -0.08,0.16 -0.12,0.24l0 0.08c-0.04,0 -0.04,0 -0.04,0 0,0 -0.04,0 -0.04,0 0,0 0,-0.04 0,-0.04l0 -0.12c0.04,-0.16 0.08,-0.28 0.2,-0.4l0 -0.04 0.04 -0.12 0 0 -0.04 0c-0.04,0 -0.08,0 -0.08,0l-0.12 0.08c-0.04,0.04 -0.08,0.08 -0.12,0.12 -0.08,0.08 -0.12,0.16 -0.16,0.24 -0.04,0.08 -0.08,0.16 -0.12,0.28 -0.04,0 -0.04,0 -0.08,0.04 0,0.04 -0.04,0.12 -0.08,0.16 0,0.04 -0.04,0.04 -0.08,0.08 -0.04,0.08 -0.08,0.16 -0.12,0.24 -0.12,0.28 -0.24,0.6 -0.24,0.92l0 0.16c-0.04,0.08 -0.04,0.16 -0.04,0.2l0 1.24 0 0.32c0,0.04 0,0.04 -0.04,0.04 0,0 0,0 0,-0.04 0,-0.16 -0.08,-0.32 -0.08,-0.48 0,-0.12 -0.04,-0.2 -0.08,-0.32 -0.04,-0.2 -0.08,-0.44 -0.08,-0.64 -0.04,-0.12 -0.08,-0.24 -0.08,-0.36 0,-0.52 0.04,-1.04 0.08,-1.56 0,-0.08 0,-0.16 0,-0.28l0 -0.12 0 -0.2c-0.04,-0.08 -0.04,-0.16 0,-0.24l-0.04 0c0,0.04 -0.04,0.12 -0.04,0.2 -0.04,0.08 0,0.12 0,0.12 0,0 -0.04,0.04 -0.04,0l0 -0.04 -0.04 0c-0.04,0.04 -0.04,0.12 -0.08,0.16l0 0c0,0.04 0,0.04 -0.04,0.04 0,0.04 -0.04,0.08 -0.08,0.12l0 0.04c-0.04,0 -0.04,0.04 -0.04,0.04l-0.04 0 0 0c0.04,-0.04 0.04,-0.08 0.04,-0.12 0,-0.08 0.04,-0.16 0.08,-0.24 0,-0.04 0,-0.08 0,-0.08 -0.08,0.08 -0.16,0.24 -0.2,0.36 -0.04,0.04 -0.08,0.08 -0.08,0.12 0,0.08 -0.04,0.16 -0.04,0.2 -0.04,0.04 -0.08,0.08 -0.12,0.12 -0.04,0.04 -0.08,0.16 -0.12,0.24 -0.2,0.32 -0.32,0.64 -0.36,1 0,0.12 0,0.24 0,0.36 -0.04,0.08 -0.04,0.12 0,0.16 0,0 -0.04,-0.08 -0.04,-0.08 0,-0.12 -0.04,-0.2 -0.08,-0.28 -0.04,-0.24 -0.08,-0.48 -0.12,-0.72 0,-0.04 -0.04,-0.08 -0.04,-0.08 -0.04,-0.08 -0.04,-0.12 -0.04,-0.16 0,-0.04 0,-0.04 -0.04,-0.04 0,0 0,0 0,0 0,0.04 0,0.08 -0.04,0.08l0 0c0,0 0,0 -0.04,0 0,0 0,0 0,0 -0.04,0.08 -0.04,0.12 -0.04,0.16 0,0.04 0,0.04 0,0.08 0,0.04 -0.04,0.08 -0.04,0.12 0,-0.04 -0.04,-0.04 -0.04,-0.04 0,0 0,0 0,0.04 -0.04,0 -0.04,0 -0.04,0.04 0,-0.04 -0.04,-0.12 -0.04,-0.16 0,0 0,0 0,0 -0.04,0 -0.04,0 -0.04,0l0 0.12 0 0.52c0,0.32 0.04,0.68 0.04,1.04 0,0.2 0.08,0.44 0.08,0.64 0.04,0.24 0.04,0.36 0.08,0.56 0,0.08 0,0.12 0,0.2 0,-0.08 -0.04,-0.16 -0.04,-0.24l-0.2 -0.52c-0.04,-0.08 -0.08,-0.16 -0.08,-0.28 -0.04,-0.08 -0.08,-0.16 -0.08,-0.2l-0.08 -0.12c-0.04,-0.08 -0.08,-0.2 -0.08,-0.28l-0.08 -0.16c-0.04,-0.16 -0.16,-0.32 -0.2,-0.48 -0.04,-0.12 -0.08,-0.2 -0.12,-0.28 -0.04,-0.12 -0.12,-0.2 -0.16,-0.32 0,-0.04 -0.04,-0.08 -0.04,-0.12l-0.08 -0.04c0,0 0,0 -0.04,0 0,0 0,0 0,0.04 -0.04,0.04 -0.04,0.12 0,0.16 0,0 0,0.04 0,0.04 0,0 0,0 0,0l0 0.36c-0.04,0 -0.04,0 -0.04,0 0,0 0,0 0,0l-0.04 -0.08c0,0 0,0 -0.04,0 0,0 0,0 0,0 -0.04,0.12 -0.04,0.2 -0.04,0.32 0,0.04 -0.04,0.12 -0.04,0.2 0,0.16 0.04,0.32 0.08,0.48 0,0.04 0.04,0.08 0.04,0.12 0,0.16 0.12,0.36 0.12,0.52l0.08 0.16c0,0.08 0.08,0.2 0.08,0.28 0.04,0.12 0.08,0.16 0.12,0.24 0,0.08 0.04,0.12 0.04,0.2 0.04,0.08 0.08,0.12 0.08,0.2 0.04,0.12 0.08,0.2 0.12,0.32 0,0 0,0 0,0 0,0.04 0,0.04 0,0.04 -0.08,0 -0.12,-0.08 -0.16,-0.12 -0.16,-0.16 -0.28,-0.32 -0.44,-0.44 -0.12,-0.16 -0.28,-0.28 -0.48,-0.4l-0.16 -0.08 -0.04 0c-0.08,-0.04 -0.12,-0.08 -0.2,-0.12l-0.12 -0.04c-0.04,-0.04 -0.12,-0.12 -0.24,-0.12l-0.08 0c0,0 -0.12,-0.04 -0.16,-0.08 -0.04,0 -0.04,0 -0.08,0 0,0 0,0 0,0.04 -0.04,0 -0.04,0 -0.04,0.04 0,0.12 0.08,0.08 0.16,0.16 0.08,0.04 0.04,0.04 0.08,0.04 -0.04,0 -0.04,0 -0.04,0 0,0.04 0,0.04 0,0.04 0.16,0.2 0.36,0.36 0.52,0.52 0.08,0.08 0.16,0.16 0.2,0.24l0.12 0.24 0.08 0.16c0.04,0.04 0,0.04 0,0.08 0,0.04 0.04,0.04 0.08,0.08 -0.08,0.04 -0.16,0.04 -0.24,0.04 -0.12,0.04 -0.24,0.08 -0.32,0.08 -0.24,0.04 -0.44,0.12 -0.6,0.16 -0.12,0 -0.24,0.08 -0.36,0.08 -0.4,0.08 -0.84,0.24 -1.24,0.32 -0.04,0 -0.08,0 -0.12,0.04 -0.24,0.04 -0.48,0.12 -0.72,0.16 -0.28,0.04 -0.44,0.12 -0.68,0.16 -0.56,0.08 -1.08,0.24 -1.64,0.36 -0.04,0 -0.08,0.04 -0.12,0.04 -0.2,0.04 -0.44,0.08 -0.64,0.12l-0.16 0.08c-0.32,0.04 -0.68,0.2 -1.04,0.24 -0.12,0.04 -0.24,0.12 -0.36,0.12l-0.16 0.08c-0.24,0.04 -0.32,0.16 -0.28,0.32 0.04,0.32 0.32,0.2 0.52,0.16 0.36,-0.04 0.72,-0.08 1.08,-0.16 0.16,0 0.32,-0.08 0.48,-0.08 0.48,-0.08 0.96,-0.24 1.44,-0.28 0.16,-0.04 0.36,-0.12 0.52,-0.16l0.16 -0.04c0.2,0 0.4,-0.08 0.56,-0.12l0.24 -0.04c0.28,-0.04 0.52,-0.16 0.8,-0.2l0.28 -0.08c0.28,-0.04 0.6,-0.16 0.88,-0.2l0.32 -0.08c0.4,-0.08 0.84,-0.28 1.28,-0.32 0.2,-0.08 0.4,-0.12 0.6,-0.16 0.04,0 0.04,0 0.04,0.04 0,0 0,0 0,0.04 0,0 0.04,0 0.04,0l0.04 0c0,0 0,0.08 0.04,0.08l0 -0.04c0,-0.04 0,-0.04 0,-0.08l0 0 0.04 0c0,0.04 0.04,0.12 0.08,0.16 0,0 0,0.04 0,0.04 0.04,-0.08 0,-0.16 0,-0.2 0,0 0,-0.04 0,-0.04l0.04 0c0,0 0,0.04 0,0.04l0.08 0.16c0,0.12 0.04,0.24 0.04,0.36 0.04,0.08 0.04,0.04 0.08,0.12 0,0.04 0,0.12 0,0.16 0,0.04 0,0.12 0,0.16l0 -0.04 0.04 0c0,0.04 0,0.04 0,0.04 0,0.08 0,0.12 0,0.2l0 0c0.04,-0.04 0.04,-0.08 0.04,-0.12 0.04,0.08 0.04,0.16 0.04,0.24 0,0 0,0 0.04,0 0,-0.04 0.04,-0.08 0.04,-0.12 0,0 0,0.04 0.04,0 0,0 0.04,-0.08 0.04,-0.12l0.04 0c0.04,-0.12 0.08,-0.24 0.08,-0.36 0,-0.04 0,-0.04 0,-0.08 0,0 0,0 0,-0.04l0 0c0,-0.04 0.04,-0.08 0.04,-0.08 0,-0.04 0.04,-0.08 0.04,-0.12 0.04,-0.24 0.04,-0.44 0,-0.64 0,0 0,0 0,-0.04 0,0 0,0 0,0 0.04,0.08 0.08,0.12 0.08,0.16 0.08,0.16 0.16,0.28 0.24,0.4 0.12,0.16 0.24,0.36 0.4,0.52 0.04,0.08 0.08,0.16 0.12,0.24l0.04 0.08c0.12,0.16 0.16,0.32 0.28,0.48l0.08 0.12c0.04,0.08 0.12,0.16 0.16,0.24 0,0 0,0 0.04,0 0,0 0,0 0,0 0,-0.04 0,-0.04 0,-0.04 0,0 0,0 0,-0.04 0.04,0.04 0.08,0.12 0.08,0.12 0.04,0.04 0.12,0.08 0.16,0.08 0,0.04 0.04,0.04 0.04,0.04 0.04,-0.04 0.04,-0.04 0,-0.04 -0.04,-0.12 -0.08,-0.28 -0.12,-0.4 0,0 -0.04,-0.04 -0.04,-0.04 -0.04,-0.08 -0.04,-0.16 -0.08,-0.2 0,-0.12 -0.12,-0.2 -0.12,-0.32 -0.04,-0.12 -0.08,-0.28 -0.16,-0.4 -0.04,-0.04 -0.04,-0.08 -0.08,-0.12 -0.04,-0.04 0,0 0,0 0,0 0.04,0.04 0.08,0.04 0.04,0.04 0.08,0.04 0.12,0.04 0,0 0,0 0.04,-0.04 0,0 0,0 0,0 -0.04,-0.04 -0.12,-0.04 -0.16,-0.08 -0.04,-0.04 -0.12,-0.12 -0.16,-0.16 0,-0.04 0,-0.04 -0.04,-0.08l0 -0.04 0.04 0.08c0.16,0.12 0.32,0.24 0.48,0.32 0.04,0.04 0.24,0.16 0.28,0.08 0.08,0.04 0.12,0.04 0.16,0 0.04,0.04 0.04,0.04 0.12,0.04 0.04,0 0.04,0.04 0.08,0.04l0.04 0c0,0 0.04,0 0.04,0 0,-0.04 0,-0.08 0,-0.08 -0.08,-0.04 -0.2,-0.08 -0.28,-0.16 0,0 0,0 -0.04,0 0,0 0,-0.04 0,-0.04 0,0 0,-0.04 0,-0.04 0,0 0.04,0 0.04,0l0.04 0c0.08,0.04 0.12,0.04 0.2,0.08 0.12,0.08 0.24,0.12 0.36,0.16 0.2,0 0.36,-0.04 0.52,-0.08 0,0 0.04,0 0.08,-0.04 0.04,-0.04 0.08,-0.04 0.16,-0.08 0.04,0 0,-0.04 -0.04,-0.04 -0.2,0 -0.36,-0.04 -0.52,-0.16l-0.08 -0.04 -0.16 -0.2 -0.24 -0.28c-0.08,-0.12 -0.2,-0.24 -0.28,-0.36 -0.04,-0.04 -0.04,-0.08 -0.08,-0.12l0.04 0c0.12,0.16 0.24,0.32 0.4,0.48l0.08 0.04 0.28 0.24c0.64,0.44 1.88,0.24 1.88,0.24 0,0 0.48,-0.08 0.52,-0.08l0 0 0.04 0c0.04,-0.04 0.04,-0.04 0.04,-0.04 0,-0.04 0,-0.04 -0.04,-0.04l-0.04 -0.04c-0.12,0 -0.2,-0.04 -0.28,-0.08l-0.12 -0.04c-0.36,-0.16 -0.68,-0.36 -0.96,-0.6 -0.12,-0.12 -0.24,-0.28 -0.36,-0.4l-0.04 -0.04c0,0 0,-0.04 0,-0.04l0.32 0.32c0.36,0.36 0.76,0.6 1.24,0.76 0.08,0.04 0.28,0.12 0.44,0.16 0.04,0 0.12,0 0.2,0 0.08,0 0.12,0 0.2,0l0.12 -0.04 0 0c0,0 0,0 0,0 0.04,-0.08 0.08,-0.12 0.16,-0.12 0.12,0 0.24,-0.04 0.36,0l0.08 0c0.04,0 0.04,-0.04 0,-0.04 0.08,0 0.12,0 0.2,0l0.08 0c0.08,0 0.12,0 0.2,0 0,0 0.04,-0.04 0.04,-0.04l0.04 0c0,0 0.04,0 0.04,0 0,0 -0.04,0 -0.04,-0.04 -0.04,0 -0.12,0 -0.16,0l-0.12 0c-0.16,0 -0.24,-0.04 -0.36,-0.08 -0.24,-0.04 -0.44,-0.08 -0.64,-0.16l-0.12 -0.04c-0.08,-0.04 -0.16,-0.08 -0.28,-0.16 -0.12,-0.08 -0.28,-0.16 -0.4,-0.28l-0.04 0c0,-0.04 0,-0.04 0,-0.04 0,0 0,-0.04 0.04,-0.04 0,0 0,0.04 0,0.04l0.2 0.12c0.32,0.16 0.6,0.28 0.96,0.32 0.16,0.04 0.32,0.08 0.48,0.12 0.12,0.04 0.24,0.04 0.36,0 0.04,0 0.16,0 0.2,-0.04 0.04,0 0.04,0 0.08,0l0 0 0 -0.04 0 0c0.12,-0.04 0.2,-0.04 0.28,-0.08 0.04,-0.08 0.12,-0.12 0.2,-0.16 0.04,0 0.08,0 0.12,-0.04l0.08 0 0 0 0.12 -0.04c0,0 0.04,-0.04 0.04,-0.04 0,0 -0.04,0 -0.04,0l-0.12 -0.08 -0.04 0 -0.04 0c-0.16,0.04 -0.32,0 -0.48,-0.04l-0.12 -0.04 -0.04 -0.04 -0.28 -0.16c-0.2,-0.08 -0.32,-0.16 -0.4,-0.2 0,0 0,0 0,0 0,0 0,-0.04 0,-0.04 0.04,0 0.04,0 0.04,0 0.36,0.16 0.72,0.28 1.08,0.36l0.4 0.12c0,0 0.32,0.04 0.76,0.16 0.28,0.08 0.52,0.2 0.8,0.28 0.08,0.04 0.12,0.04 0.2,0.08l0.08 0c0,0 0,0 0,0 -0.04,-0.04 -0.08,-0.04 -0.12,-0.08 -0.04,-0.04 -0.04,-0.04 -0.04,-0.04 -0.04,0 -0.04,-0.04 -0.04,-0.04 0,0 -0.04,0 -0.08,-0.04l0 0 -0.04 -0.04 -0.04 -0.04 -0.08 -0.04c0,0 0.04,0 0.04,0 0.04,0.04 0.08,0.04 0.12,0.04 0.08,0.04 0.16,0.04 0.24,0.08l0.08 0c-0.08,-0.04 -0.12,-0.04 -0.16,-0.04 -0.04,-0.04 -0.04,-0.04 -0.08,-0.04l-0.28 -0.12c-0.44,-0.16 -0.84,-0.32 -1.28,-0.56 -0.32,-0.2 -0.64,-0.48 -0.96,-0.76l-0.04 -0.08c-0.04,0 -0.04,0 -0.04,-0.04 0,0 0,0 0.04,-0.04 0,0 0,0 0.04,0 0,0 0,0 0.04,0 0.32,0.24 0.6,0.44 0.92,0.64 0.12,0.08 0.24,0.12 0.36,0.16 0.28,0.12 0.56,0.24 0.88,0.32 0.04,0 0.12,0 0.16,0 0.04,0 0.08,0 0.12,0l0 0 0.2 -0.08 0.2 -0.16 0.04 -0.04c0,0 0,0 -0.04,0 0.12,-0.04 0.2,-0.04 0.28,-0.08 0,-0.04 0,-0.04 0,-0.04 0,-0.04 0,-0.04 -0.04,-0.04 -0.08,0 -0.12,0 -0.2,0 -0.08,0 -0.12,-0.04 -0.16,-0.04l-0.16 -0.04c-0.4,-0.16 -0.76,-0.32 -1.12,-0.6 -0.04,-0.04 -0.12,-0.12 -0.2,-0.16 0,0 0.04,0 0.04,0 0,-0.04 0,-0.04 0,0 0.08,0.04 0.16,0.08 0.24,0.12 0.2,0.16 0.44,0.24 0.64,0.36 0.04,0.04 0.12,0.04 0.2,0.08l0.04 0.04c0.16,0.04 0.36,0.08 0.52,0.12 0.2,0 0.36,-0.04 0.52,-0.08 0.12,-0.08 0.24,-0.12 0.36,-0.16 0.12,-0.04 0.2,-0.04 0.32,-0.08l0.08 -0.08 0.04 0 0.4 0 -0.04 -0.04c0,0 0,0 0,-0.04 0,-0.04 0,-0.04 0.04,-0.04l0.04 -0.04c0.04,0 0.04,0 0.04,0 0.04,0 0.08,-0.04 0.08,-0.04 0.08,0 0.24,-0.08 0.36,-0.08 0.08,-0.04 0.44,-0.2 0.48,-0.2 0.12,-0.04 0.2,-0.04 0.32,-0.08l0.04 -0.04c0.08,0 0.12,-0.04 0.16,-0.04 0.04,0 0.04,-0.04 0.04,-0.04 0,0 0,-0.04 0,-0.04 0,0 0,0 -0.04,0l-0.08 0 0 0c0,-0.04 0,-0.04 0,-0.04 0.04,-0.04 0.12,-0.04 0.16,-0.04 0.08,0 0.12,-0.12 0.2,-0.12l0.04 0 -0.04 0 0.08 -0.04 0.2 -0.08 0.28 -0.16 0.2 -0.12 0.4 -0.28 0.12 -0.08 0.48 -0.36c0,0 0,-0.04 0.04,-0.04 0.12,-0.08 0.24,-0.12 0.4,-0.12 0,0 0.04,-0.04 0.04,-0.04 0.04,0 0.08,0 0.12,0 0.04,0 0.08,0 0.12,0l0.08 0.04 0.04 0 0.12 0 0.08 0c0.04,0 0.08,-0.04 0.12,-0.04 0,0 0.04,-0.04 0.04,-0.04l0.04 -0.04 0.08 -0.08 0.08 -0.16 0.04 -0.04c0,0 0.04,0 0.04,-0.04l0.04 0c0.04,-0.04 0.08,-0.04 0.12,-0.04 0.04,0 0.04,0.04 0.08,0.04 0.04,0.04 0.04,0 0.04,0 -0.04,-0.04 -0.08,-0.08 -0.12,-0.12 -0.04,0 -0.08,0 -0.12,0l-0.24 0c-0.04,0 -0.04,0 -0.04,-0.04 0,0 0,0 0,0 0,-0.04 0,-0.04 0.04,-0.04l0.04 0 0.12 -0.04c0.16,0 0.32,-0.08 0.44,-0.16l0 -0.04 0.24 -0.28 0.16 -0.24c0,0 0.04,0 0.04,0 0.08,-0.08 0.16,-0.2 0.24,-0.28 0.04,0 0.12,-0.04 0.16,-0.04 0,0 0.04,-0.04 0.04,-0.04l0.04 0 -0.04 0c0.08,-0.08 0.16,-0.16 0.24,-0.2l0.08 -0.04c0,0 0.04,0 0.04,-0.04 0.08,-0.04 0.2,-0.08 0.28,-0.12l0.04 -0.04c0.04,0 0.08,-0.04 0.12,-0.04 0.12,0 0.24,0 0.36,0l0.2 0.08 0.04 0c0.04,0 0.12,0.04 0.16,0.04l0.04 0c0.04,0 0.04,0 0.08,0l0.04 0 0 0c0.08,-0.04 -0.04,-0.08 -0.08,-0.08l-0.12 -0.04 -0.32 -0.16c0,0 0,0 0,-0.04 0,0 0,0 0,-0.04 0,0 0,0 0.04,-0.04 0,0 0,0 0.04,0 0.08,-0.04 0.16,-0.04 0.24,-0.04 0,0 0,-0.04 0,-0.04 0.04,0 0.04,-0.04 0,-0.04 0,0 0,-0.04 -0.04,-0.04l0 0c0,0 -0.04,0 -0.08,0 0,-0.04 0.04,-0.04 0.04,-0.08l0.04 0 0.08 0 0.04 0c0.16,-0.04 0.32,-0.12 0.48,-0.2l0.36 -0.28 0.04 -0.04 0.08 -0.04 1.6 -1.2 0.08 -0.04c0,0 0,0 0,-0.04 0,0 0,0 0,0 0,0 0,0 -0.04,0l-0.04 0c0,0 0,0 0,-0.04 0,0 0,0 0,-0.04 0,0 0.04,-0.04 0.08,-0.04l0.24 -0.16 0.28 -0.16 0.08 -0.04 0 0 0.12 -0.08 0.28 -0.2 0.04 0 0.16 -0.12 0 -0.04 0 -0.04c0,0 0,0 -0.04,0 0,0 0.08,-0.04 0.04,-0.04 0,0 0,0 0,0 0,-0.04 0,-0.04 0,-0.04l0.08 0 0 0 0.08 -0.04 -0.08 0c0.12,-0.04 0.2,-0.08 0.28,-0.16 0,0 0,0 0,0 0.08,-0.08 0.12,-0.16 0.2,-0.24l0.04 -0.08 0 -0.04c0,0 0,0 0,0 -0.04,0 -0.08,0 -0.12,0l0.04 0c0.08,-0.04 0.12,-0.08 0.16,-0.12 0,0 0.12,-0.12 0,-0.12l-0.04 0 0 0c0.04,0 0.08,-0.04 0.08,-0.08 0,0 0,0 -0.04,0.04 0.04,-0.08 0.12,-0.12 0.16,-0.16 0,-0.04 0,-0.04 0,-0.04l-0.04 0c0,-0.04 0.04,-0.08 0.04,-0.08l0 0 0 -0.04c0.04,-0.04 0.08,-0.08 0.12,-0.08 0.08,0 0.16,-0.04 0.2,-0.12 0,0 0.04,0 0.04,0l0 -0.04c0.04,-0.04 0.04,-0.08 0.04,-0.12 0,-0.08 0,-0.12 -0.04,-0.16l0 -0.08zm-20.32 -18.68c-11.24,1.32 -20.2,10.24 -21.52,21.48l0 0 4.76 0c1.28,-8.68 8.08,-15.56 16.76,-16.88l0 -4.6zm5.72 0c11.24,1.32 20.2,10.24 21.48,21.48l-4.36 0c-1.28,-8.8 -8.28,-15.76 -17.12,-16.92l0 -4.56zm0 48.72c11.24,-1.32 20.2,-10.24 21.48,-21.48l0 0 -4.36 0c-1.28,8.76 -8.28,15.72 -17.12,16.92l0 4.56zm-5.72 0c-11.24,-1.32 -20.2,-10.24 -21.52,-21.48l4.76 0c1.28,8.64 8.08,15.52 16.76,16.88l0 4.6z"/>
</svg>
