<?xml version="1.0" encoding="UTF-8" standalone="no"?>
<svg xmlns="http://www.w3.org/2000/svg" xmlns:xlink="http://www.w3.org/1999/xlink" style="isolation:isolate" viewBox="0 0 1000 1000" width="1000pt" height="1000pt">
<defs>
<clipPath id="_clipPath_rL1rBDIEpD1luUpJUPusSxMFZulmYqR9">
<rect width="1000" height="1000"/>
</clipPath>
</defs>
<g clip-path="url(#_clipPath_rL1rBDIEpD1luUpJUPusSxMFZulmYqR9)">
<rect width="1000" height="1000" style="fill:rgb(0,0,0)" fill-opacity="0"/>
<path d=" M 453.411 39.106 C 232.744 64.865 57.462 240.151 31.709 460.82 L 31.709 460.82 L 125.082 460.82 C 149.594 290.552 283.643 155.483 453.411 129.429 L 453.411 39.106 Z  M 566.01 39.106 C 786.676 64.865 961.958 240.151 987.711 460.82 L 901.503 460.82 C 876.648 288.164 739.16 151.7 566.01 128.397 L 566.01 39.106 Z  M 566.01 995.104 C 786.676 969.345 961.958 794.059 987.711 573.39 L 987.711 573.39 L 901.503 573.39 C 876.648 746.046 739.16 882.51 566.01 905.812 L 566.01 995.104 Z  M 453.411 995.104 C 232.744 969.345 57.462 794.059 31.709 573.39 L 125.082 573.39 C 149.594 743.658 283.643 878.727 453.411 904.781 L 453.411 995.104 Z " fill-rule="evenodd" fill="rgb(255,255,255)"/>
<g>
<path d=" M 401.047 385.276 L 270.839 385.276 L 264.105 398.745 L 387.088 491.942 C 414.029 476.226 443.44 456.689 474.869 440.973 M 517.786 582.834 L 644.627 674.876 L 774.836 674.876 L 780.448 662.528 L 591.87 524.463 C 567.176 543.544 541.359 562.628 517.786 582.834 Z " fill="rgb(255,255,255)"/>
<path d=" M 1307.376 228.599 C 1148.318 258.132 712.956 344.153 381.965 676 L 264.105 676 L 254 660.284 C 333.699 582.834 627.861 302.162 1332.861 217.272 C 1332.861 217.272 1357.84 220.719 1307.376 228.599 Z " fill="rgb(255,255,255)"/>
</g>
</g>
</svg>
