<?xml version="1.0" encoding="UTF-8" standalone="no"?>
<svg xmlns="http://www.w3.org/2000/svg" xmlns:xlink="http://www.w3.org/1999/xlink" style="isolation:isolate" viewBox="0 0 1000 1000" width="1000pt" height="1000pt">
<defs>
<clipPath id="_clipPath_8yyWob97ENZODhPAnE4C37PCFapERgGS">
<rect width="1000" height="1000"/>
</clipPath>
</defs>
<g clip-path="url(#_clipPath_8yyWob97ENZODhPAnE4C37PCFapERgGS)">
<rect width="1000" height="1000" style="fill:rgb(0,0,0)" fill-opacity="0"/>
<g>
<path d=" M 218.855 892.169 C 237.047 873.977 266.646 873.977 284.842 892.169 C 335.201 942.528 417.145 942.528 467.504 892.169 C 476.317 883.355 488.035 878.502 500.499 878.502 C 512.963 878.502 524.68 883.357 533.493 892.169 C 583.853 942.528 665.796 942.528 716.155 892.169 C 724.968 883.355 736.686 878.502 749.15 878.502 C 761.614 878.502 773.331 883.357 782.144 892.169 C 806.54 916.565 838.976 930 873.474 930 C 907.977 930 940.41 916.565 964.806 892.169 C 980.917 876.058 980.915 849.94 964.804 833.831 C 948.694 817.721 922.575 817.721 906.467 833.831 C 897.656 842.645 885.938 847.498 873.474 847.498 C 861.01 847.498 849.293 842.643 840.482 833.833 C 816.088 809.438 783.65 796.002 749.152 796 C 749.148 796 749.152 796 749.15 796 C 714.651 796 682.214 809.438 657.818 833.831 C 639.626 852.025 610.02 852.021 591.833 833.833 C 567.439 809.438 535.001 796.002 500.503 796 C 500.499 796 500.503 796 500.501 796 C 466.002 796 433.565 809.438 409.169 833.831 C 390.977 852.025 361.371 852.023 343.183 833.831 C 292.822 783.47 210.879 783.47 160.52 833.831 C 142.328 852.023 112.726 852.023 94.53 833.831 C 78.42 817.721 52.302 817.721 36.193 833.831 C 20.084 849.942 20.084 876.06 36.195 892.169 C 86.55 942.528 168.491 942.528 218.855 892.169 Z " fill="rgb(255,255,255)"/>
</g>
<path d=" M 853.987 182.713 L 852.29 144.949 C 851.026 116.829 827.148 94 799 94 L 221 94 C 192.852 94 168.146 116.777 165.863 144.832 L 163 180 L 163 180 L 52 180 C 23.852 180 1 202.852 1 231 L 1 571 C 1 599.148 23.852 622 52 622 L 159 622 L 160.21 644.076 C 161.75 672.182 185.852 695 214 695 L 799 695 C 827.148 695 851.25 672.182 852.79 644.076 L 854 622 L 949 622 C 977.148 622 1000 599.148 1000 571 L 1000 231 C 1000 203.7 978.508 181.823 951.536 181.068 C 778.27 237.284 562.798 336.926 381.987 518.205 L 276.08 518.205 L 267 504.082 C 322.054 450.582 490.995 289.164 853.987 182.713 Z  M 410.8 260.854 L 293.797 260.854 L 287.746 272.957 L 398.257 356.703 C 422.466 342.58 448.894 325.024 477.135 310.902 L 410.8 260.854 L 410.8 260.854 L 410.8 260.854 Z  M 515.699 438.376 L 629.677 521.084 L 746.68 521.084 L 751.723 509.988 L 582.27 385.925 C 560.08 403.071 536.882 420.219 515.699 438.376 L 515.699 438.376 L 515.699 438.376 Z " fill-rule="evenodd" fill="rgb(255,255,255)"/>
</g>
</svg>
