<?xml version="1.0" encoding="UTF-8" standalone="no"?><!-- Generator: Gravit.io --><svg xmlns="http://www.w3.org/2000/svg" xmlns:xlink="http://www.w3.org/1999/xlink" style="isolation:isolate" viewBox="0 0 1000 1000" width="1000pt" height="1000pt"><defs><clipPath id="_clipPath_T10ErjuaqPWr2H7fHsRMP9zYLHsvwUwB"><rect width="1000" height="1000"/></clipPath></defs><g clip-path="url(#_clipPath_T10ErjuaqPWr2H7fHsRMP9zYLHsvwUwB)"><rect width="1000" height="1000" style="fill:rgb(0,0,0)" fill-opacity="0"/><path d=" M 479.805 467.888 Q 500.612 452.98 559.356 458.25 C 587.599 460.783 621.499 483.08 635.01 508.01 L 661.217 556.363 C 676.53 584.617 662.943 609.488 630.894 611.868 L 511.904 620.705 C 484.569 622.735 461.845 602.135 461.191 574.732 Q 458.998 482.796 479.805 467.888 L 479.805 467.888 L 479.805 467.888 Z  M 388.165 450.26 L 421.367 463.562 L 362.175 611.314 L 328.972 598.012 L 388.165 450.26 L 388.165 450.26 Z  M 361.974 321 L 601.243 323.75 Q 826.072 684.028 825.385 689.528 C 831.573 740.407 711.55 799.691 489.859 802.287 C 268.168 804.882 131.644 733.531 136.457 693.653 Q 128.894 679.902 361.974 321 L 361.974 321 L 361.974 321 Z  M 327.58 429.714 L 360.782 443.015 L 297.281 601.521 L 264.079 588.22 L 327.58 429.714 Z " fill-rule="evenodd" fill="rgb(0,0,0)"/><path d=" M 884.514 763.784 Q 798.316 828.234 623.244 850.415 L 630.12 904.044 Q 821.01 886.822 923.017 811.912 Q 1025.024 737.003 989.022 440.468 L 923.017 433.759 Q 970.712 699.334 884.514 763.784 Z " fill="rgb(0,0,0)"/><path d=" M 113.9 770.493 Q 200.098 834.943 375.17 857.124 L 368.294 910.754 Q 177.404 893.531 75.397 818.622 Q -26.61 743.712 9.392 447.177 L 75.397 440.468 Q 27.702 706.043 113.9 770.493 Z " fill="rgb(0,0,0)"/><rect x="368.294" y="115" width="52.151" height="174" transform="matrix(1,0,0,1,0,0)" fill="rgb(0,0,0)"/><rect x="524.523" y="163" width="53.263" height="136" transform="matrix(1,0,0,1,0,0)" fill="rgb(0,0,0)"/><rect x="450.107" y="0" width="53.339" height="232.5" transform="matrix(1,0,0,1,0,0)" fill="rgb(0,0,0)"/></g></svg>