<?xml version="1.0" encoding="UTF-8" standalone="no"?><!-- Generator: Gravit.io --><svg xmlns="http://www.w3.org/2000/svg" xmlns:xlink="http://www.w3.org/1999/xlink" style="isolation:isolate" viewBox="0 0 1000 1000" width="1000pt" height="1000pt"><defs><clipPath id="_clipPath_jJh88HQX4yd7T7XTnhbLfedfMXfQtlkz"><rect width="1000" height="1000"/></clipPath></defs><g clip-path="url(#_clipPath_jJh88HQX4yd7T7XTnhbLfedfMXfQtlkz)"><rect width="1000" height="1000" style="fill:rgb(0,0,0)" fill-opacity="0"/><path d=" M -13 789.489 L 839.799 477.644 L 981 525.515 L -7 896.173 L -13 789.489 Z  M 286.289 1012.431 L 961.232 770.341 L 972.528 796.328 L 327.238 1028.601 L 286.289 1012.431 Z  M 99.904 842.831" fill-rule="evenodd" fill="rgb(0,0,0)"/><path d=" M 805.91 589.799 L 908.987 792.225 L 959.82 773.076 L 973.94 522.78 L 938.64 532.354 L 923.107 722.47 L 836.975 574.754 L 805.91 589.799 Z " fill="rgb(0,0,0)"/><path d=" M 622.349 656.818 L 725.426 859.244 L 776.258 840.096 L 790.378 589.799 L 755.078 599.373 L 739.546 789.489 L 653.413 641.773 L 622.349 656.818 Z " fill="rgb(0,0,0)"/><path d=" M 476.911 706.057 L 582.812 913.954 L 630.821 896.173 L 643.529 649.98 L 609.64 660.922 L 594.108 838.728 L 512.212 696.483 L 476.911 706.057 Z " fill="rgb(0,0,0)"/><path d=" M 327.238 766.238 L 430.315 968.664 L 481.147 949.515 L 496.679 703.322 L 459.967 714.263 L 444.435 898.909 L 362.538 749.825 L 327.238 766.238 Z " fill="rgb(0,0,0)"/><path d=" M 215.689 804.534 L 286.289 1017.902 L 337.122 998.754 L 349.83 759.399 L 315.942 770.341 L 300.41 948.147 L 248.165 792.225 L 215.689 804.534 Z " fill="rgb(0,0,0)"/><path d=" M -362.652 451.046 L 393.205 172.741 L 540.545 222.693 L -362.652 556.66 L -362.652 451.046 Z  M -247.727 813.558 L -184.37 730.779 L 519.918 478.163 L 531.705 505.28 L -157.849 753.615 L -224.152 839.247 L -247.727 813.558 Z " fill-rule="evenodd" fill="rgb(0,0,0)"/><path d=" M 357.843 289.772 L 465.402 500.999 L 518.444 481.018 L 533.178 219.839 L 496.343 229.829 L 480.136 428.211 L 390.258 274.072 L 357.843 289.772 Z " fill="rgb(0,0,0)"/><path d=" M 166.3 359.705 L 273.859 570.932 L 326.901 550.951 L 341.636 289.772 L 304.8 299.762 L 288.593 498.144 L 198.715 344.006 L 166.3 359.705 Z " fill="rgb(0,0,0)"/><path d=" M 14.54 411.085 L 125.045 628.02 L 175.141 609.467 L 188.401 352.569 L 153.04 363.987 L 136.832 549.524 L 51.375 401.094 L 14.54 411.085 Z " fill="rgb(0,0,0)"/><path d=" M -141.641 473.882 L -34.083 685.109 L 18.96 665.128 L 35.167 408.23 L -3.141 419.648 L -19.349 612.321 L -104.806 456.755 L -141.641 473.882 Z " fill="rgb(0,0,0)"/><path d=" M -258.04 513.844 L -184.37 736.488 L -131.328 716.507 L -118.067 466.746 L -153.429 478.163 L -169.636 663.701 L -224.152 500.999 L -258.04 513.844 Z " fill="rgb(0,0,0)"/><path d=" M 644.682 127.796 C 677.485 170.079 678.116 218.317 660.98 260.912 C 697.295 225.343 717.743 181.364 703.464 136.957 C 701.652 131.309 700.49 125.776 699.64 120.127 L 699.315 113.315 L 701.341 112.569 L 709.964 132.275 C 722.216 165.813 724.022 201.174 711.989 237.49 C 688.029 308.623 719.333 378.275 776.415 434.285 C 750.111 366.561 752.559 289.559 805.803 221.401 C 816.03 208.408 824.439 195.201 831.146 181.682 L 835.198 172.741 L 834.874 175.079 C 824.121 220.868 847.548 262.405 886.526 293.709 C 866.294 253.14 863.203 204.999 892.597 159.21 C 917.2 111.933 923.485 53.248 904.206 9.691 C 874.065 -53.247 834.021 -82.212 779.602 -83.7 C 771.726 -83.804 763.629 -83.492 755.319 -82.422 C 710.912 -77.63 655.428 -55.916 637.54 -4.478 C 619.866 39.625 611.451 84.784 644.682 127.796 Z " fill="rgb(0,0,0)"/></g></svg>