<?xml version="1.0" encoding="UTF-8"?>
<!DOCTYPE svg PUBLIC "-//W3C//DTD SVG 1.1//EN" "http://www.w3.org/Graphics/SVG/1.1/DTD/svg11.dtd">
<!-- Creator: CorelDRAW 2020 (64-Bit) -->
<svg xmlns="http://www.w3.org/2000/svg" xml:space="preserve" width="3.687mm" height="2.9378mm" version="1.1" style="shape-rendering:geometricPrecision; text-rendering:geometricPrecision; image-rendering:optimizeQuality; fill-rule:evenodd; clip-rule:evenodd"
viewBox="0 0 16.41 13.07"
 xmlns:xlink="http://www.w3.org/1999/xlink"
 xmlns:xodm="http://www.corel.com/coreldraw/odm/2003">
 <defs>
  <style type="text/css">
   <![CDATA[
    .fil0 {fill:black}
   ]]>
  </style>
 </defs>
 <g id="图层_x0020_1">
  <metadata id="CorelCorpID_0Corel-Layer"/>
  <path class="fil0" d="M11.57 9.48c0.04,0.03 0.08,0.07 0.12,0.1 0.04,0.04 0.09,0.08 0.11,0.13l-0.21 -0 -0.01 -0.23zm-7.64 0l-0 0.23 -0.23 0c0.02,-0.05 0.17,-0.19 0.23,-0.23zm10.59 -0.55c0.06,-0.01 0.24,-0.03 0.29,0.01 0.03,0.02 0.03,0.03 0.03,0.11l-0 0.26c-0,0.15 -0.03,0.13 -0.22,0.13 -0.1,-0 -0.11,-0 -0.11,-0.09 -0,-0.1 -0.01,-0.33 0.01,-0.41zm-0.6 0.01c0.06,-0.03 0.22,-0.04 0.3,-0.01 0.03,0.05 0.03,0.44 -0,0.49 -0.04,0.04 -0.26,0.02 -0.31,0 -0.01,-0.1 -0.02,-0.4 0.01,-0.48zm-2.26 0.3c0.02,-0.03 0.56,-0.6 0.65,-0.64l-0 1.11c-0.29,-0.01 -0.17,0.02 -0.51,-0.32 -0.03,-0.03 -0.04,-0.04 -0.07,-0.06l-0.07 -0.08zm-8.47 0.46l-0.01 -1.1c0.05,0.03 0.59,0.56 0.65,0.64l-0.4 0.42c-0.06,0.06 -0.12,0.05 -0.24,0.04zm10.51 -1.12c-0.09,-0 -0.24,-0.01 -0.32,0.01 -0.02,-0.06 -0.04,-0.31 0.01,-0.36l0.46 -0.01c0.01,0.08 0.01,0.18 0.01,0.26 -0,0.13 -0.02,0.11 -0.15,0.11zm-2.13 0.43l0 -1.34 0.33 0.33c0.07,0.07 0.3,0.28 0.34,0.35 -0.04,0.06 -0.62,0.65 -0.67,0.67zm-8.32 -0.68c0.06,-0.05 0.1,-0.11 0.16,-0.16l0.51 -0.5 -0 1.33c-0.11,-0.07 -0.45,-0.44 -0.59,-0.58l-0.08 -0.1zm-0.07 -0.26l-0 -1.34 0.25 0.24c0.08,0.08 0.38,0.37 0.42,0.43 -0.01,0.01 -0.6,0.63 -0.67,0.67zm9.12 -1.34l-0 1.35c-0.11,-0.06 -0.55,-0.55 -0.67,-0.65 0.03,-0.06 0.61,-0.66 0.67,-0.69zm-0.74 -0.89c0.06,0.04 0.63,0.62 0.65,0.66 -0.03,0.05 -0.59,0.62 -0.65,0.66l-0 -1.31zm-7.82 0.16c0.03,-0.03 0.06,-0.05 0.08,-0.08 0.04,-0.04 0.05,-0.05 0.1,-0.08l-0 1.3c-0.07,-0.04 -0.26,-0.25 -0.34,-0.32 -0.06,-0.06 -0.28,-0.27 -0.31,-0.32l0.48 -0.5zm7.91 -0.4c0.06,-0.1 0.23,-0.23 0.33,-0.33 0.06,-0.06 0.26,-0.28 0.32,-0.32l-0 1.31 -0.64 -0.65zm-8.47 -0.65c0.06,0.03 0.6,0.57 0.65,0.65 -0.04,0.06 -0.25,0.26 -0.32,0.33 -0.06,0.06 -0.1,0.11 -0.16,0.16 -0.05,0.06 -0.1,0.12 -0.17,0.15l0 -1.3zm8.39 -0.9l0.65 0.65c-0.05,0.08 -0.64,0.66 -0.65,0.66l0.01 -1.32zm-8.3 0.65c0.06,-0.07 0.55,-0.6 0.65,-0.66l0 1.31c-0.08,-0.03 -0.63,-0.61 -0.65,-0.66zm8.39 -0.9c0.04,-0.05 0.56,-0.59 0.65,-0.64l-0 1.29c-0.05,-0.04 -0.59,-0.57 -0.64,-0.65zm-8.47 -0.64c0.06,0.03 0.56,0.55 0.65,0.64 -0.05,0.06 -0.58,0.63 -0.65,0.65l0 -1.29zm8.39 -0.27c0.11,-0.01 0.54,-0.02 0.61,0.01 0.01,0.09 -0.09,0.14 -0.13,0.19 -0.11,0.11 -0.4,0.42 -0.48,0.47l0.01 -0.67zm-7.65 0.67c-0.09,-0.06 -0.38,-0.37 -0.49,-0.49 -0.14,-0.14 -0.13,-0.09 -0.11,-0.19l0.6 -0 -0 0.68zm4.27 -1.74c0.11,-0.01 0.33,-0 0.39,-0 0.41,0 2.29,-0.02 2.65,0l0.03 0 0 0 0 0 -0 7.88c-0.21,0.02 -0.47,-0.05 -0.57,0.12 -0.06,0.1 -0.03,0.5 -0.03,0.65l-0.19 -0 -3.79 0 -1.81 0 0 -0 -0.05 0c-0,-0.82 0.07,-0.75 -0.6,-0.76l0 -0 -0 0 0 -6.36 -0 -1.34 0 -0.19 1.06 -0c0.07,0 0.14,0 0.21,0l1.83 0 0.02 -0 0.01 0 0.85 0zm-5.31 0.08l0 7.81c-0.64,-0.01 -0.78,-0.06 -0.78,0.37 0,0.12 -0.02,0.27 0.01,0.39l-0.71 0.01c-0.06,-0.11 -0.06,-0.04 -0.06,-0.2 0,-0.16 -0.03,-0.77 0.03,-0.81 0.04,-0.03 0.17,0.02 0.22,-0.04 0.03,-0.04 0.04,-0.18 -0,-0.22 -0.05,-0.07 -0.3,-0.04 -0.4,-0.04 -0.1,0 -0.35,-0.03 -0.41,0.04 -0,0 -0.08,0.24 0.1,0.25 0.24,0.01 0.14,0 0.16,0.79 0,0.07 0.01,0.12 -0.02,0.17 -0.04,0.06 -0.07,0.06 -0.14,0.06 -0.57,0.02 -0.87,-0.12 -0.87,0.34 0,0.24 -0.05,0.58 0.09,0.73 0.07,0.08 0.36,0.36 0.43,0.37 0.05,0.01 0.25,-0.05 0.32,-0.07 0.36,-0.07 0.74,-0.06 1.09,0.05 0.45,0.14 0.71,0.36 1.3,0.2 0.21,-0.05 0.38,-0.15 0.6,-0.21 0.47,-0.14 0.99,-0.08 1.39,0.08 0.2,0.08 0.35,0.17 0.61,0.19 0.27,0.02 0.45,-0.07 0.66,-0.16 0.4,-0.17 0.89,-0.24 1.38,-0.13 0.45,0.11 0.73,0.38 1.28,0.26 0.22,-0.05 0.38,-0.14 0.59,-0.21 1.4,-0.44 1.69,0.57 2.67,0.12 0.75,-0.34 1.26,-0.28 1.98,0 0.22,0.09 0.41,0.13 0.68,0.11 0.16,-0.02 0.53,-0.11 0.6,-0.21 0.05,-0.06 0.1,-0.17 0.15,-0.24 0.11,-0.18 0.32,-0.62 0.41,-0.81 0.05,-0.1 0.26,-0.48 0.18,-0.59 -0.07,-0.1 -0.6,-0.02 -0.76,-0.06 -0.04,-0.18 0.05,-0.67 -0.04,-0.78 -0.12,-0.06 -0.36,0.04 -0.47,-0.03l-0.01 -0.02c-0.02,-0.07 -0.01,-0.15 -0.01,-0.22 0,-0.08 -0.02,-0.19 0.02,-0.24 0.09,-0.03 0.19,0.01 0.27,-0.04 0.02,-0.06 0.03,-0.24 -0.02,-0.29 -0.09,-0.09 -1.15,0.03 -1.26,-0.04 -0.04,-0.03 -0.03,-0.03 -0.03,-0.16 0,-0.03 -0,-0.07 -0,-0.1 0,-0.02 0,-0.02 0.01,-0.04 0.03,-0.13 0.29,0.04 0.3,-0.15 0.01,-0.16 -0.18,-0.07 -0.28,-0.11 -0.03,-0.02 -0.03,-0.12 -0.03,-0.16 0,-0.07 -0,-0.13 0.01,-0.19 0.13,-0.02 0.3,0.03 0.3,-0.1 0.01,-0.21 -0.27,-0.03 -0.3,-0.16 -0.03,-0.13 0.06,-0.33 -0.12,-0.34 -0.19,-0 -0.1,0.24 -0.13,0.39 -0.12,0.02 -0.28,-0.03 -0.28,0.11 -0.01,0.14 0.18,0.1 0.29,0.11l0 0.37c-0.23,0.01 -0.64,-0.03 -0.73,0.05l-0.01 1.65 -0.49 0c-0.03,-0.11 -0.01,-5.25 -0.01,-5.85 0,-0.63 -0.03,-1.33 0,-1.95 0.23,-0.08 0.17,-0.29 0.17,-0.64 -0,-0.12 0.01,-0.27 -0,-0.39 -0.01,-0.13 -0.07,-0.2 -0.19,-0.22 -0.15,-0.02 -4.76,-0.01 -4.83,-0.01 -0.09,0 -4.69,-0.02 -4.83,0 -0.26,0.04 -0.2,0.35 -0.2,0.59 0,0.3 -0.06,0.58 0.17,0.65zm12.01 11.17c0.4,0 0.81,-0.13 1.15,-0.31 0.24,-0.12 0.33,-0.13 0.14,-0.38 -0.04,-0.05 -0.07,-0.11 -0.13,-0.12 -0.09,-0 -0.56,0.33 -1.14,0.33 -0.34,0 -0.5,-0.08 -0.76,-0.19 -1.16,-0.48 -1.52,0.19 -2.25,0.19 -0.71,0 -1.17,-0.67 -2.27,-0.19 -0.38,0.16 -0.72,0.26 -1.16,0.13 -0.35,-0.1 -0.57,-0.3 -1.08,-0.3 -0.53,-0 -0.72,0.18 -1.1,0.3 -0.91,0.28 -1.24,-0.53 -2.32,-0.24 -0.39,0.11 -0.59,0.3 -1.09,0.3 -0.64,-0 -0.75,-0.3 -1.42,-0.35 -0.42,-0.04 -1.08,0.13 -1.36,0.35 -0.02,0.16 0.18,0.35 0.23,0.36 0.12,0.02 0.64,-0.41 1.42,-0.18 0.14,0.04 0.28,0.11 0.42,0.17 0.14,0.05 0.3,0.09 0.46,0.11 1,0.11 1.24,-0.44 1.97,-0.33 0.34,0.05 0.55,0.21 0.86,0.29 0.93,0.24 1.29,-0.31 1.91,-0.3 0.37,0 0.6,0.15 0.91,0.26 0.86,0.31 1.43,-0.16 1.89,-0.24 0.79,-0.14 1.03,0.44 1.96,0.32 0.38,-0.05 0.56,-0.19 0.87,-0.29 0.77,-0.23 1.13,0.3 1.91,0.3zm-8.08 -12.6l2 0.01c-0.02,-0.15 0.02,-0.39 -0.29,-0.46 -0.16,-0.03 -0.53,-0.02 -0.71,-0.01 -0.64,0 -0.99,-0.11 -0.99,0.46zm0 7.82l2 -0.01c-0.02,0.15 0.02,0.39 -0.29,0.46 -0.16,0.03 -0.53,0.02 -0.71,0.01 -0.64,-0 -0.99,0.11 -0.99,-0.46zm0 -0.19l2 0 0 -6.04 -2 0 0 6.04z"/>
 </g>
</svg>
