<svg xmlns="http://www.w3.org/2000/svg" xmlns:xlink="http://www.w3.org/1999/xlink" fill="none" version="1.1" width="85" height="57" viewBox="0 0 85 57"><path d="M18.215445,2.220227L3.0127578,2.220227C1.695654,2.220227,0.57675987,3.0237782,0.16733406,4.263732C-0.24215524,5.503624,0.18097524,6.8068008,1.2434014,7.5777974L19.784561,21.032907C20.615595,21.635979,21.609751,21.776314,22.57777,21.427326C26.915979,19.863525,29.844072,17.982981,32.047157,15.111856C32.554928,14.450213,32.748951,13.697948,32.624146,12.876106C32.499222,12.054203,32.090172,11.391869,31.408312,10.907513L19.960058,2.7757246C19.429382,2.398773,18.868446,2.2201018,18.215385,2.2201018L18.215445,2.220227ZM53.590393,46.050011L64.861053,54.208569C65.395912,54.595695,65.965034,54.779781,66.627495,54.779781L82.000534,54.779781C83.317139,54.779781,84.435646,53.976864,84.84552,52.737587C85.255447,51.498268,84.833275,50.195461,83.771919,49.423779L65.244278,35.954086C64.412865,35.349693,63.417316,35.208729,62.448338,35.558338C58.111668,37.122643,55.181137,38.997978,52.977551,41.855968C52.470413,42.513714,52.274242,43.26152,52.393955,44.080593C52.513687,44.89967,52.915817,45.561691,53.590454,46.05006L53.590393,46.050011ZM31.407412,46.051582L20.138912,54.208569C19.604046,54.595695,19.034927,54.779781,18.372473,54.779781L2.9994934,54.779781C1.6828973,54.779781,0.5643841,53.976864,0.15445058,52.737587C-0.25541937,51.498268,0.16669591,50.195461,1.2280434,49.423779L19.753914,35.955463C20.585384,35.351013,21.581005,35.210056,22.550098,35.559723C26.884375,37.123653,29.814503,38.998161,32.019745,41.856785C32.527195,42.51453,32.723499,43.262463,32.603966,44.081665C32.484364,44.900925,32.082172,45.563202,31.407412,46.051582L31.407412,46.051582ZM66.784462,2.220227L81.987152,2.220227C83.304184,2.220227,84.423073,3.0237782,84.832565,4.2637339C85.24205,5.503624,84.818855,6.8068023,83.756424,7.5777974L65.214317,21.033596C64.383408,21.636606,63.389324,21.777008,62.421364,21.428146C58.083157,19.864594,55.154041,17.983862,52.951527,15.111417C52.444138,14.44971,52.250313,13.69763,52.375294,12.87598C52.500229,12.054329,52.909275,11.392183,53.591019,10.907953L65.039841,2.7757876C65.57058,2.3988359,66.131447,2.2202277,66.784523,2.2202277L66.784462,2.220227ZM13.7273,28.492243C33.490833,24.037018,37.983288,19.560297,42.507843,0C47.002769,19.563375,51.520348,24.039593,71.272667,28.492243C51.528286,32.971348,47.003792,37.432358,42.507851,56.999996C37.982464,37.436131,33.483662,32.974121,13.7273,28.492243L13.7273,28.492243Z" fill="#007AFF" fill-opacity="1" style="mix-blend-mode:passthrough"/></svg>