<svg xmlns="http://www.w3.org/2000/svg" xmlns:xlink="http://www.w3.org/1999/xlink" fill="none" version="1.1" width="77" height="58" viewBox="0 0 77 58"><path d="M38.500004,0C52.616882,0,65.211105,8.9474659,76.254738,26.426735C77.248428,27.997099,77.248428,30.002905,76.254738,31.573267C65.211105,49.052536,52.616882,58,38.500004,58C24.383125,58,11.788909,49.052536,0.74526775,31.573267C-0.24842282,30.002905,-0.24842282,27.997097,0.74526775,26.426733C11.788909,8.9474659,24.383125,0,38.500004,0ZM38.500004,11.6C28.931866,11.6,21.175137,19.390368,21.175137,29C21.175137,38.609638,28.931866,46.400002,38.500004,46.400002C48.068146,46.400002,55.824871,38.609638,55.824871,29C55.824871,19.390366,48.068146,11.6,38.500004,11.6ZM38.500004,40.600002C44.878441,40.600002,50.049915,35.406101,50.049915,29C50.049915,22.593903,44.878441,17.400002,38.500004,17.400002C32.121567,17.400002,26.950092,22.593903,26.950092,29C26.950092,35.406101,32.121567,40.600002,38.500004,40.600002Z" fill="#007AFF" fill-opacity="1" style="mix-blend-mode:passthrough"/></svg>