<svg xmlns="http://www.w3.org/2000/svg" width="79" height="63" viewBox="0 0 79 63"><path fill-rule="evenodd" fill="#909090" d="M79,31.473087C79,38.285965,76.283638,44.591766,71.668663,49.742676L75.184296,58.415127C76.387352,61.383945,73.121765,64.171906,70.407249,62.494091L62.044182,57.321747C55.651016,60.868473,47.880672,62.948032,39.5,62.948032C17.689333,62.948032,0,48.857159,0,31.474953C0,14.092744,17.689333,0,39.5,0C61.310673,0,79,14.090884,79,31.473087ZM23,31.5A4.5,4.5 0 1 0 14,31.5A4.5,4.5 0 1 0 23,31.5ZM44,31.5A4.5,4.5 0 1 0 35,31.5A4.5,4.5 0 1 0 44,31.5ZM65,31.5A4.5,4.5 0 1 0 56,31.5A4.5,4.5 0 1 0 65,31.5Z"/></svg>
