<svg xmlns="http://www.w3.org/2000/svg" xmlns:xlink="http://www.w3.org/1999/xlink" fill="none" version="1.1" width="79" height="63" viewBox="0 0 79 63"><defs><clipPath id="master_svg0_212_270"><rect x="0" y="0" width="79" height="63" rx="0"/></clipPath></defs><g clip-path="url(#master_svg0_212_270)"><g><path d="M79,31.473087C79,38.285965,76.283638,44.591766,71.668663,49.742676L75.184296,58.415127C76.387352,61.383945,73.121765,64.171906,70.407249,62.494091L62.044182,57.321747C55.651016,60.868473,47.880672,62.948032,39.5,62.948032C17.689333,62.948032,0,48.857159,0,31.474953C0,14.092744,17.689333,0,39.5,0C61.310673,0,79,14.090884,79,31.473087ZM18.5,36Q18.61047,36,18.720804,35.994579Q18.831141,35.989159,18.941078,35.978333Q19.051014,35.967503,19.160286,35.951294Q19.26956,35.935081,19.377907,35.913532Q19.486252,35.891983,19.59341,35.865139Q19.700569,35.838299,19.806282,35.806232Q19.911995,35.774162,20.016005,35.736946Q20.120014,35.69973,20.222075,35.657455Q20.324135,35.615181,20.423998,35.567951Q20.523861,35.520718,20.621286,35.468643Q20.718712,35.416569,20.813463,35.359776Q20.908215,35.302986,21.000065,35.241611Q21.091917,35.180237,21.180647,35.114433Q21.269377,35.04863,21.354771,34.978546Q21.440165,34.908466,21.522017,34.834282Q21.603867,34.760094,21.68198,34.68198Q21.760094,34.603867,21.83428,34.522015Q21.908466,34.440163,21.978546,34.354771Q22.048626,34.269371,22.114431,34.180641Q22.180239,34.091911,22.241611,34.000061Q22.302986,33.908211,22.359777,33.813457Q22.416573,33.718708,22.468647,33.621284Q22.520721,33.523857,22.567951,33.423996Q22.615181,33.324131,22.657457,33.222073Q22.699732,33.12001,22.736948,33.016003Q22.774164,32.911991,22.806232,32.806282Q22.838299,32.700569,22.865143,32.59341Q22.891983,32.486252,22.913534,32.377907Q22.935085,32.269562,22.951296,32.16029Q22.967505,32.051018,22.978333,31.94108Q22.989161,31.831142,22.994581,31.720806Q23,31.61047,23,31.5Q23,31.38953,22.994581,31.279194Q22.989161,31.168861,22.978333,31.058924Q22.967503,30.948986,22.951294,30.839714Q22.935083,30.730438,22.913532,30.622091Q22.891983,30.513744,22.865141,30.406588Q22.838299,30.299429,22.806232,30.193718Q22.774164,30.088005,22.736948,29.983994Q22.699732,29.879982,22.657457,29.77792Q22.615181,29.675861,22.567951,29.575998Q22.520721,29.476137,22.468647,29.378714Q22.416573,29.281288,22.359777,29.186535Q22.302986,29.091782,22.241611,28.999931Q22.180239,28.908079,22.114433,28.819351Q22.048626,28.730621,21.978546,28.645227Q21.908466,28.559834,21.83428,28.477982Q21.760092,28.39613,21.681978,28.318016Q21.603865,28.239902,21.522013,28.165718Q21.440161,28.091532,21.354767,28.021452Q21.269375,27.95137,21.180645,27.885563Q21.091915,27.819757,21.000063,27.758385Q20.908211,27.697012,20.813459,27.640221Q20.718708,27.583427,20.621284,27.531355Q20.523859,27.479279,20.423996,27.432047Q20.324133,27.384815,20.222073,27.342539Q20.120014,27.300266,20.016003,27.26305Q19.911991,27.225836,19.80628,27.193769Q19.700569,27.161701,19.593409,27.134861Q19.486252,27.108017,19.377905,27.086466Q19.269558,27.064915,19.160286,27.048706Q19.051014,27.032497,18.941076,27.021669Q18.831139,27.010841,18.720804,27.005421Q18.61047,27,18.5,27Q18.38953,27,18.279196,27.005423Q18.168861,27.010841,18.058926,27.021671Q17.948986,27.032497,17.839714,27.048706Q17.730438,27.064915,17.622093,27.086464Q17.513746,27.108017,17.406588,27.134861Q17.299431,27.161701,17.193718,27.193769Q17.088005,27.225836,16.983994,27.26305Q16.879982,27.300266,16.777924,27.342539Q16.675863,27.384815,16.576,27.432047Q16.476139,27.479279,16.378714,27.531353Q16.281288,27.583427,16.186535,27.640221Q16.091784,27.697012,15.999933,27.758385Q15.908081,27.819757,15.819352,27.885565Q15.730623,27.95137,15.64523,28.021452Q15.559836,28.091532,15.477983,28.165718Q15.396132,28.239902,15.318019,28.318016Q15.239906,28.39613,15.16572,28.477982Q15.091534,28.559834,15.021453,28.645227Q14.951372,28.730621,14.885565,28.819351Q14.819758,28.908079,14.758386,28.999931Q14.697012,29.091782,14.640219,29.186535Q14.583427,29.281288,14.531353,29.378714Q14.479279,29.476139,14.432047,29.576Q14.384815,29.675861,14.342541,29.777922Q14.300266,29.879982,14.263051,29.983994Q14.225836,30.088005,14.193768,30.19372Q14.1617,30.299431,14.134859,30.40659Q14.108017,30.513744,14.086465,30.622091Q14.064913,30.730438,14.048704,30.83971Q14.032495,30.948986,14.021669,31.058924Q14.010841,31.168861,14.005421,31.279196Q14,31.38953,14,31.5Q14,31.61047,14.00542,31.720806Q14.010839,31.831141,14.021667,31.941078Q14.032495,32.051014,14.048704,32.160286Q14.064913,32.269558,14.086465,32.377903Q14.108017,32.486252,14.134858,32.593407Q14.1617,32.700569,14.193768,32.806282Q14.225834,32.911991,14.26305,33.016003Q14.300265,33.12001,14.34254,33.222073Q14.384815,33.324131,14.432046,33.423992Q14.479278,33.523857,14.531352,33.621284Q14.583426,33.718712,14.640219,33.813461Q14.69701,33.908215,14.758384,34.000065Q14.819757,34.091915,14.885563,34.180645Q14.95137,34.269375,15.021452,34.354771Q15.091532,34.440163,15.165718,34.522015Q15.239904,34.603867,15.318018,34.68198Q15.396132,34.760094,15.477983,34.834282Q15.559835,34.908466,15.645229,34.978546Q15.730622,35.04863,15.819351,35.114433Q15.90808,35.180237,15.999932,35.241611Q16.091782,35.302986,16.186535,35.359776Q16.281288,35.416569,16.378714,35.468643Q16.476139,35.520718,16.576,35.567947Q16.675863,35.615181,16.777924,35.657455Q16.879982,35.69973,16.983994,35.736946Q17.088005,35.774162,17.19372,35.806232Q17.299431,35.838299,17.40659,35.865143Q17.513746,35.891983,17.622093,35.913536Q17.730438,35.935085,17.839714,35.951294Q17.948986,35.967503,18.058924,35.978333Q18.168859,35.989159,18.279196,35.994579Q18.38953,36,18.5,36ZM39.5,36Q39.61047,36,39.720806,35.994579Q39.831139,35.989159,39.941078,35.978333Q40.051014,35.967503,40.160286,35.951294Q40.269562,35.935081,40.377907,35.913532Q40.486252,35.891983,40.593414,35.865139Q40.700569,35.838299,40.806282,35.806232Q40.911995,35.774162,41.016003,35.736946Q41.120014,35.69973,41.222073,35.657455Q41.324135,35.615181,41.423996,35.567951Q41.523857,35.520718,41.621284,35.468643Q41.718712,35.416569,41.813461,35.359776Q41.908211,35.302986,42.000061,35.241611Q42.091911,35.180237,42.180645,35.114433Q42.269371,35.04863,42.354767,34.978546Q42.440163,34.908466,42.522011,34.834282Q42.603863,34.760094,42.681976,34.68198Q42.76009,34.603867,42.834278,34.522015Q42.908463,34.440163,42.978546,34.354771Q43.048622,34.269371,43.114429,34.180641Q43.180237,34.091911,43.241608,34.000061Q43.302979,33.908211,43.359776,33.813457Q43.416565,33.718708,43.468643,33.621284Q43.520714,33.523857,43.567947,33.423996Q43.615177,33.324131,43.657452,33.222073Q43.69973,33.12001,43.736942,33.016003Q43.774162,32.911991,43.806232,32.806282Q43.838299,32.700569,43.865139,32.59341Q43.891979,32.486252,43.913528,32.377907Q43.935081,32.269562,43.951294,32.16029Q43.967506,32.051018,43.978333,31.94108Q43.989159,31.831142,43.994579,31.720806Q44,31.61047,44,31.5Q44,31.38953,43.994579,31.279194Q43.989159,31.168861,43.978333,31.058924Q43.967506,30.948986,43.951294,30.839714Q43.935081,30.730438,43.913528,30.622091Q43.891979,30.513744,43.865139,30.406588Q43.838295,30.299429,43.806229,30.193718Q43.774162,30.088005,43.736942,29.983994Q43.69973,29.879982,43.657452,29.77792Q43.615177,29.675861,43.567947,29.575998Q43.520714,29.476137,43.468643,29.378714Q43.416565,29.281288,43.359776,29.186535Q43.302979,29.091782,43.241608,28.999931Q43.180237,28.908079,43.114429,28.819351Q43.048622,28.730621,42.978546,28.645227Q42.908463,28.559834,42.834274,28.477982Q42.76009,28.39613,42.681976,28.318016Q42.603863,28.239902,42.522011,28.165718Q42.440163,28.091532,42.354767,28.021452Q42.269371,27.95137,42.180645,27.885563Q42.091911,27.819757,42.000061,27.758385Q41.908211,27.697012,41.813461,27.640221Q41.718712,27.583427,41.621284,27.531355Q41.523857,27.479279,41.423996,27.432047Q41.324127,27.384815,41.222069,27.342539Q41.12001,27.300266,41.015999,27.26305Q40.911991,27.225836,40.806282,27.193769Q40.700569,27.161701,40.593414,27.134861Q40.486252,27.108017,40.377907,27.086466Q40.269562,27.064915,40.160286,27.048706Q40.051018,27.032497,39.941082,27.021669Q39.831142,27.010841,39.720806,27.005421Q39.61047,27,39.5,27Q39.389534,27,39.279198,27.005423Q39.168861,27.010841,39.058922,27.021671Q38.948982,27.032497,38.839706,27.048706Q38.730434,27.064915,38.622089,27.086464Q38.513744,27.108017,38.406586,27.134861Q38.299431,27.161701,38.193718,27.193769Q38.088005,27.225836,37.983994,27.26305Q37.879982,27.300266,37.77792,27.342539Q37.675861,27.384815,37.576,27.432047Q37.476139,27.479279,37.378716,27.531353Q37.281288,27.583427,37.186539,27.640221Q37.091782,27.697012,36.999931,27.758385Q36.908081,27.819757,36.819351,27.885565Q36.730621,27.95137,36.645229,28.021452Q36.559837,28.091532,36.477982,28.165718Q36.39613,28.239902,36.318016,28.318016Q36.239902,28.39613,36.165714,28.477982Q36.09153,28.559834,36.02145,28.645227Q35.951366,28.730621,35.885559,28.819351Q35.819756,28.908079,35.758381,28.999931Q35.697006,29.091782,35.640217,29.186535Q35.583427,29.281288,35.531353,29.378714Q35.479279,29.476139,35.432045,29.576Q35.384811,29.675861,35.342537,29.777922Q35.300262,29.879982,35.26305,29.983994Q35.225838,30.088005,35.193768,30.19372Q35.161697,30.299431,35.134857,30.40659Q35.108017,30.513744,35.086464,30.622091Q35.064915,30.730438,35.048706,30.83971Q35.032497,30.948986,35.021671,31.058924Q35.010841,31.168861,35.005421,31.279196Q35,31.38953,35,31.5Q35,31.61047,35.005421,31.720806Q35.010841,31.831141,35.021671,31.941078Q35.032497,32.051014,35.048706,32.160286Q35.064915,32.269558,35.086464,32.377903Q35.108017,32.486252,35.134857,32.593407Q35.161697,32.700569,35.193768,32.806282Q35.225838,32.911991,35.26305,33.016003Q35.300262,33.12001,35.342537,33.222073Q35.384811,33.324131,35.432045,33.423992Q35.479275,33.523857,35.531349,33.621284Q35.583424,33.718712,35.640213,33.813461Q35.697006,33.908215,35.758381,34.000065Q35.819756,34.091915,35.885559,34.180645Q35.951366,34.269375,36.02145,34.354771Q36.09153,34.440163,36.165718,34.522015Q36.239902,34.603867,36.318016,34.68198Q36.39613,34.760094,36.477982,34.834282Q36.559837,34.908466,36.645229,34.978546Q36.730621,35.04863,36.819351,35.114433Q36.908081,35.180237,36.999931,35.241611Q37.091782,35.302986,37.186539,35.359776Q37.281288,35.416569,37.378712,35.468643Q37.476135,35.520718,37.576,35.567947Q37.675861,35.615181,37.77792,35.657455Q37.879982,35.69973,37.983994,35.736946Q38.088005,35.774162,38.193718,35.806232Q38.299431,35.838299,38.406586,35.865143Q38.513744,35.891983,38.622089,35.913536Q38.730434,35.935085,38.839706,35.951294Q38.948982,35.967503,39.058922,35.978333Q39.168861,35.989159,39.279198,35.994579Q39.389534,36,39.5,36ZM65,31.5Q65,31.61047,64.994583,31.720806Q64.989159,31.831141,64.978333,31.941078Q64.967499,32.051014,64.951294,32.160286Q64.935081,32.269558,64.913528,32.377903Q64.891975,32.486252,64.865135,32.593407Q64.838295,32.700569,64.806229,32.806282Q64.774155,32.911991,64.736938,33.016003Q64.699722,33.12001,64.657448,33.222073Q64.615173,33.324131,64.567947,33.423992Q64.520714,33.523857,64.468643,33.621284Q64.416565,33.718712,64.359772,33.813461Q64.302979,33.908215,64.241608,34.000065Q64.180237,34.091915,64.114426,34.180645Q64.04863,34.269375,63.97855,34.354771Q63.90847,34.440163,63.834278,34.522015Q63.760094,34.603867,63.681976,34.68198Q63.603863,34.760094,63.522011,34.834282Q63.440163,34.908466,63.354771,34.978546Q63.269371,35.04863,63.180641,35.114433Q63.091911,35.180237,63.000061,35.241611Q62.908211,35.302986,62.813461,35.359776Q62.718708,35.416569,62.621284,35.468643Q62.523857,35.520718,62.423992,35.567947Q62.324127,35.615181,62.222069,35.657455Q62.12001,35.69973,62.015999,35.736946Q61.911987,35.774162,61.806282,35.806232Q61.700569,35.838299,61.593407,35.865143Q61.486252,35.891983,61.377903,35.913536Q61.269562,35.935085,61.160286,35.951294Q61.051018,35.967503,60.941078,35.978333Q60.831142,35.989159,60.720806,35.994579Q60.61047,36,60.5,36Q60.38953,36,60.279198,35.994579Q60.168861,35.989159,60.058926,35.978333Q59.948982,35.967503,59.83971,35.951294Q59.730434,35.935081,59.622089,35.913532Q59.513741,35.891983,59.406586,35.865139Q59.299431,35.838299,59.193718,35.806232Q59.088005,35.774162,58.983994,35.736946Q58.879982,35.69973,58.77792,35.657455Q58.675858,35.615181,58.576,35.567951Q58.476135,35.520718,58.378712,35.468643Q58.281288,35.416569,58.186531,35.359776Q58.091778,35.302986,57.999924,35.241611Q57.908073,35.180237,57.819344,35.114433Q57.730618,35.04863,57.645226,34.978546Q57.55983,34.908466,57.477978,34.834282Q57.396126,34.760094,57.318016,34.68198Q57.239899,34.603867,57.165718,34.522015Q57.09153,34.440163,57.021446,34.354771Q56.951366,34.269371,56.885559,34.180641Q56.819752,34.091911,56.758377,34.000061Q56.697002,33.908211,56.640209,33.813457Q56.58342,33.718708,56.531349,33.621284Q56.479271,33.523857,56.432045,33.423996Q56.384811,33.324131,56.342537,33.222073Q56.300262,33.12001,56.263046,33.016003Q56.22583,32.911991,56.193764,32.806282Q56.161697,32.700569,56.134853,32.59341Q56.108009,32.486252,56.08646,32.377907Q56.064911,32.269562,56.048698,32.16029Q56.032494,32.051018,56.021667,31.94108Q56.010841,31.831142,56.005417,31.720806Q56,31.61047,56,31.5Q56,31.38953,56.005417,31.279194Q56.010841,31.168861,56.021667,31.058924Q56.032494,30.948986,56.048702,30.839714Q56.064911,30.730438,56.08646,30.622091Q56.108009,30.513744,56.134853,30.406588Q56.161697,30.299429,56.193764,30.193718Q56.22583,30.088005,56.263042,29.983994Q56.300259,29.879982,56.342533,29.77792Q56.384804,29.675861,56.432037,29.575998Q56.479271,29.476137,56.531349,29.378714Q56.58342,29.281288,56.640213,29.186535Q56.697002,29.091782,56.758377,28.999931Q56.819752,28.908079,56.885559,28.819351Q56.95137,28.730621,57.021454,28.645227Q57.09153,28.559834,57.165714,28.477982Q57.239899,28.39613,57.318016,28.318016Q57.396126,28.239902,57.477978,28.165718Q57.55983,28.091532,57.645226,28.021452Q57.730618,27.95137,57.819347,27.885563Q57.908073,27.819757,57.999928,27.758385Q58.091782,27.697012,58.186531,27.640221Q58.281284,27.583427,58.378708,27.531355Q58.476131,27.479279,58.575993,27.432047Q58.675858,27.384815,58.777916,27.342539Q58.879974,27.300266,58.98399,27.26305Q59.088005,27.225836,59.193718,27.193769Q59.299431,27.161701,59.406586,27.134861Q59.513741,27.108017,59.622089,27.086466Q59.730434,27.064915,59.839706,27.048706Q59.948982,27.032497,60.058922,27.021669Q60.168858,27.010841,60.279194,27.005421Q60.38953,27,60.5,27Q60.61047,27,60.720806,27.005423Q60.831142,27.010841,60.941078,27.021671Q61.051018,27.032497,61.160286,27.048706Q61.269562,27.064915,61.377903,27.086464Q61.486252,27.108017,61.593407,27.134861Q61.700565,27.161701,61.806278,27.193769Q61.911987,27.225836,62.015999,27.26305Q62.12001,27.300266,62.222069,27.342539Q62.324127,27.384815,62.423996,27.432047Q62.523857,27.479279,62.621284,27.531353Q62.718708,27.583427,62.813461,27.640221Q62.908211,27.697012,63.000061,27.758385Q63.091911,27.819757,63.180641,27.885565Q63.269371,27.95137,63.354771,28.021452Q63.440163,28.091532,63.522011,28.165718Q63.603863,28.239902,63.681976,28.318016Q63.760094,28.39613,63.834274,28.477982Q63.908463,28.559834,63.978546,28.645227Q64.048622,28.730621,64.114426,28.819351Q64.180237,28.908079,64.241608,28.999931Q64.302979,29.091782,64.359772,29.186535Q64.416565,29.281288,64.468643,29.378714Q64.520721,29.476139,64.567947,29.576Q64.615181,29.675861,64.657455,29.777922Q64.69973,29.879982,64.736946,29.983994Q64.774162,30.088005,64.806229,30.19372Q64.838303,30.299431,64.865135,30.40659Q64.891983,30.513744,64.913528,30.622091Q64.935081,30.730438,64.951294,30.83971Q64.967499,30.948986,64.978333,31.058924Q64.989159,31.168861,64.994583,31.279196Q65,31.38953,65,31.5Z" fill-rule="evenodd" fill="#909090" fill-opacity="1"/></g></g></svg>