<svg xmlns="http://www.w3.org/2000/svg" xmlns:xlink="http://www.w3.org/1999/xlink" fill="none" version="1.1" width="33" height="85" viewBox="0 0 33 85"><path d="M7.8063049,10.379935L1.0004567,15.807897C0.88396525,15.899796,0.82503438,16.017616,0.82503438,16.154287L0.82503438,20.495955C0.82503438,20.756336,1.0717224,20.968412,1.3746004,20.968412L5.1790776,20.968412L7.804934,10.378755L7.8063049,10.379935ZM5.4463234,63.442493L-5.2280006e-7,72.297836L-5.2280006e-7,84.52755C-5.2280006e-7,84.789108,0.2466875,85,0.54956561,85L5.4449515,85L5.4449515,63.442493L5.4463234,63.442493ZM27.553677,84.999985L32.450439,84.999985C32.753307,84.999985,33,84.787926,33,84.52755L33,72.414482C33,72.334351,32.979443,72.264839,32.935589,72.194153L27.552305,63.442493L27.552305,84.999985L27.553677,84.999985ZM27.819553,20.968407L31.625404,20.968407C31.928284,20.968407,32.174969,20.755152,32.174969,20.495949L32.174969,16.154287C32.174969,16.017616,32.114666,15.899796,31.999548,15.807897L25.195072,10.379935L27.819553,20.969585L27.819553,20.968407ZM23.986296,10.225589L26.650526,20.968407L25.806307,20.968407L25.806307,60.60067L26.410694,61.583305L26.410694,85L25.654179,85L25.233438,85L7.7692981,85L7.3499298,85L6.5920491,85L6.5920491,61.583305L7.196434,60.60067L7.196434,20.968407L6.3535838,20.968407L9.0164442,10.225589L10.26633,8.4182291L10.881679,7.9280972C11.52444,6.5036554,12.250796,5.1110244,13.052533,3.7478476C13.439011,3.0904124,14.906805,0.88600141,15.493372,0.43121663C15.774323,0.21442796,16.108723,0.067153074,16.502054,-0.0000042978404C16.895386,0.067153059,17.229782,0.21442796,17.510736,0.43121663C18.095934,0.8848232,19.563725,3.0904124,19.950203,3.7478476C20.753307,5.1110244,21.476931,6.5048332,22.121058,7.9280972L22.736412,8.4182291L23.986296,10.225589Z" fill-rule="evenodd" fill="#007AFF" fill-opacity="1" style="mix-blend-mode:passthrough"/></svg>